<svg fill="none" height="64" viewBox="0 0 70 64" width="70" xmlns="http://www.w3.org/2000/svg"><path clip-rule="evenodd" d="m24.3842 21.4025c-6.3557 6.3581-10.8245 13.3294-12.9393 19.425-2.14093 6.1709-1.77277 11.0991.9278 13.7996 2.7006 2.7006 7.6288 3.0688 13.7997.9279 6.0985-2.1159 13.0737-6.588 19.4344-12.9487 6.3606-6.3606 10.8328-13.3358 12.9486-19.4343 2.1409-6.171 1.7728-11.0991-.9278-13.79969s-7.6288-3.06875-13.7997-.92782c-6.0493 2.09871-12.9612 6.51601-19.2803 12.79511l-.154.1536zm22.6229-15.90677c4.8664-.97853 9.2117-.36057 12.0347 2.46237 3.5478 3.5478 3.6129 9.5001 1.4031 15.8694-2.2343 6.4402-6.8952 13.6631-13.4195 20.1886l-.0044.0045c-8.0823 8.0823-16.9104 13.9568-24.6849 16.8967-7.6792 2.9039-14.73929 3.0761-18.8022-.9868-4.062903-4.0629-3.890766-11.123-.98687-18.8022 2.93994-7.7745 8.81447-16.6026 16.89677-24.6849 5.0434-5.0434 10.3716-9.22178 15.5481-12.36484.4721-.28663 1.0871-.1363 1.3738.33578.2866.47208.1363 1.08713-.3358 1.37377-5.0294 3.05376-10.2328 7.13039-15.1719 12.06949-7.9292 7.9292-13.62195 16.5252-16.44026 23.9781-2.85435 7.5482-2.63142 13.5188.53037 16.6806 3.1618 3.1617 9.13239 3.3847 16.68059.5303.4509-.1705.906-.3515 1.3649-.543-4.8666.9787-9.2121.3608-12.0351-2.4622-3.54777-3.5478-3.61286-9.5002-1.40311-15.8694 2.23481-6.4417 6.89731-13.6664 13.42391-20.1931.0522-.0522.1045-.1043.1568-.1562 8.0396-8.0018 16.8039-13.81956 24.5282-16.74051 7.6792-2.903899 14.7393-3.07603761 18.8022.98687 4.0629 4.0629 3.8907 11.12304.9868 18.80224-2.9399 7.7745-8.8144 16.6025-16.8967 24.6848-4.8992 4.8992-10.0669 8.9819-15.1031 12.0923-.4699.2902-1.0861.1446-1.3763-.3253s-.1445-1.0861.3253-1.3763c4.8951-3.0232 9.9422-7.0073 14.7399-11.8049 7.9292-7.9292 13.6219-16.5252 16.4402-23.9781 2.8544-7.5482 2.6315-13.51874-.5303-16.68053s-9.1324-3.38473-16.6806-.53037c-.4508.17047-.9058.35146-1.3646.54283zm-23.7666 38.26377c-1.4479-1.4478-1.811-4.035-.8006-7.355.9963-3.2734 3.2684-6.9971 6.6186-10.3472 3.3502-3.3502 7.0739-5.6224 10.3473-6.6187 3.32-1.0104 5.9071-.6473 7.355.8006 1.4478 1.4479 1.811 4.035.8005 7.355-.9962 3.2734-3.2684 6.9971-6.6186 10.3473-3.3501 3.3501-7.0738 5.6223-10.3472 6.6186-3.32 1.0104-5.9072.6473-7.355-.8006zm4.4038-19.1165c-3.5353 3.5354-6.0083 7.5338-7.1177 11.1792-1.0953 3.5988-.9248 7.1271 1.2996 9.3515s5.7528 2.395 9.3516 1.2997c3.6454-1.1094 7.6438-3.5824 11.1791-7.1177s6.0083-7.5338 7.1178-11.1792c1.0953-3.5988.9247-7.1271-1.2997-9.3515s-5.7527-2.395-9.3516-1.2997c-3.6454 1.1095-7.6438 3.5824-11.1791 7.1177zm31.6051 24.4118c.0948-.2656.4703-.2656.5651 0l.6537 1.8314c.3025.8475.9695 1.5144 1.8169 1.8169l1.8315.6537c.2655.0948.2655.4703 0 .5651l-1.8315.6537c-.8474.3025-1.5144.9694-1.8169 1.8169l-.6537 1.8314c-.0948.2656-.4703.2656-.5651 0l-.6537-1.8314c-.3024-.8475-.9694-1.5144-1.8169-1.8169l-1.8314-.6537c-.2655-.0948-.2655-.4703 0-.5651l1.8314-.6537c.8475-.3025 1.5145-.9694 1.8169-1.8169zm-7.8338-37.4763c-.051-.1429-.2529-.1429-.3039 0l-.3516.985c-.1627.4559-.5215.8146-.9773.9773l-.9851.3516c-.1428.051-.1428.253 0 .3039l.9851.3516c.4558.1627.8146.5215.9773.9773l.3516.9851c.051.1428.2529.1428.3039 0l.3516-.9851c.1627-.4558.5214-.8146.9773-.9773l.985-.3516c.1429-.0509.1429-.2529 0-.3039l-.985-.3516c-.4559-.1627-.8146-.5214-.9773-.9773zm-41.3561-4.30647c.0645-.18053.3198-.18053.3842 0l.4445 1.24516c.2056.5762.6591 1.02964 1.2353 1.23531l1.2451.4444c.1805.0645.1805.3198 0 .3842l-1.2451.4445c-.5762.2056-1.0297.6591-1.2353 1.2353l-.4445 1.2451c-.0644.1806-.3197.1806-.3842 0l-.44441-1.2451c-.20567-.5762-.65911-1.0297-1.23531-1.2353l-1.24515-.4445c-.18054-.0644-.18054-.3197 0-.3842l1.24515-.4444c.5762-.20567 1.02964-.65911 1.23531-1.23531zm20.802 28.86677c-.3255-.3254-.5255-1.0435-.1587-2.2488.3527-1.1587 1.1745-2.5222 2.4202-3.7679 1.2457-1.2456 2.6092-2.0675 3.7679-2.4202 1.2053-.3668 1.9233-.1668 2.2488.1587.3255.3254.5255 1.0435.1586 2.2488-.3526 1.1587-1.1745 2.5222-2.4202 3.7678-1.2457 1.2457-2.6091 2.0676-3.7679 2.4203-1.2053.3668-1.9233.1668-2.2487-.1587zm.8473-7.4309c-1.4308 1.4309-2.4535 3.0691-2.9193 4.5998-.4517 1.4842-.4443 3.1433.6577 4.2453s2.7612 1.1095 4.2454.6578c1.5307-.4659 3.1689-1.4885 4.5997-2.9193 1.4309-1.4309 2.4535-3.0691 2.9194-4.5998.4517-1.4842.4442-3.1433-.6578-4.2453-1.102-1.1021-2.7612-1.1095-4.2453-.6578-1.5307.4659-3.169 1.4885-4.5998 2.9193z"  fill-rule="evenodd"/></svg>