<svg height="58" viewBox="0 0 65 58" width="65" xmlns="http://www.w3.org/2000/svg"><path clip-rule="evenodd" d="m2.5 20c0-9.7794 7.8191-18 17.4999-18 5.6576 0 9.8991 2.91994 11.8135 4.72726.3854.36378.9876.36378 1.373 0 1.9144-1.80731 6.1561-4.72726 11.8137-4.72726 9.6808 0 17.4999 8.2206 17.4999 18 0 5.9964-3.138 12.594-8.5844 18.9273-.2862.3327-.5784.6644-.8767.9949 1.5687-2.8695 2.4611-5.7938 2.4611-8.6369 0-7.7331-6.2714-14.2853-14.129-14.2853-4.01 0-7.1155 1.7689-8.8711 3.177-1.7555-1.4081-4.8609-3.177-8.8709-3.177-7.8576 0-14.129 6.5522-14.129 14.2853 0 2.8432.8925 5.7676 2.4612 8.6372-.2984-.3307-.5907-.6624-.8769-.9952-5.44633-6.3333-8.5843-12.9309-8.5843-18.9273zm34.1227 33.2677c-1.341.8205-2.7167 1.6128-4.1228 2.373-1.4058-.7601-2.7813-1.5522-4.1221-2.3726-1.9902-1.4407-3.733-3.0115-5.136-4.6308-2.4163-2.7886-3.7418-5.621-3.7418-8.1211 0-4.09 3.2969-7.5162 7.3548-7.5162 2.3699 0 4.1583 1.2184 4.9614 1.9709.3846.3603.9829.3603 1.3675 0 .8031-.7525 2.5916-1.9709 4.9615-1.9709 4.0579 0 7.3548 3.4262 7.3548 7.5162 0 2.5001-1.3255 5.3324-3.7418 8.1211-1.403 1.6191-3.1455 3.1898-5.1355 4.6304zm-13.3603-.9411c-5.3246-3.6771-9.9941-7.7923-13.69445-12.0953-5.60437-6.5169-9.06795-13.5638-9.06795-20.2313 0-10.81624 8.64801-20 19.4999-20 5.7327 0 10.1303 2.66062 12.5 4.66104 2.3697-2.00043 6.7675-4.66104 12.5002-4.66104 10.8519 0 19.4999 9.18376 19.4999 20 0 6.6675-3.4636 13.7144-9.068 20.2313-3.7003 4.3028-8.3696 8.4179-13.6939 12.0949-2.6668 2.0268-5.6206 3.9029-8.7677 5.5563l-.9354.0028c-3.149-1.6539-6.1044-3.5309-8.7726-5.5587zm.3666-33.3266c-6.7141 0-12.129 5.6174-12.129 12.2853 0 4.087 2.1749 8.6309 6.0171 13.0329.4399.5039.9004 1.0047 1.3806 1.5013-.8901-1.7532-1.3977-3.5446-1.3977-5.3033 0-5.1413 4.1398-9.5162 9.3548-9.5162 2.4916 0 4.4517 1.0348 5.6452 1.9378 1.1934-.903 3.1536-1.9378 5.6452-1.9378 5.215 0 9.3548 4.3749 9.3548 9.5162 0 1.7586-.5076 3.55-1.3977 5.3031.4802-.4965.9407-.9972 1.3805-1.5011 3.8422-4.402 6.0172-8.946 6.0172-13.0329 0-6.6679-5.4149-12.2853-12.129-12.2853-3.9208 0-6.8649 1.9959-8.19 3.2284-.3839.3571-.9783.3571-1.3621 0-1.3251-1.2325-4.2691-3.2284-8.1899-3.2284z" fill-rule="evenodd"/></svg>