<svg width="66" height="59" viewBox="0 0 66 59" fill="none" xmlns="http://www.w3.org/2000/svg">
<path fill-rule="evenodd" clip-rule="evenodd" d="M48.7035 7.15489C48.7035 3.38622 46.2916 1.06237 43.4212 0.652315C40.5898 0.247824 37.4448 1.71799 35.904 5.10771C35.6755 5.61049 35.8978 6.20334 36.4006 6.43188C36.9033 6.66042 37.4962 6.4381 37.7247 5.93532C38.9062 3.33602 41.2058 2.35613 43.1384 2.63221C45.032 2.90273 46.7035 4.39008 46.7035 7.15489C46.7035 10.1705 44.0351 12.4361 39.9855 14.038C36.0338 15.6011 31.248 16.3233 28.0476 16.5011C27.4961 16.5318 27.074 17.0036 27.1046 17.555C27.1352 18.1065 27.6071 18.5287 28.1585 18.498C31.4916 18.3129 36.506 17.5651 40.7212 15.8977C44.8384 14.2691 48.7035 11.5439 48.7035 7.15489ZM15.2167 52.4892C14.8363 52.8892 14.2032 52.9057 13.803 52.5254C13.4093 52.1514 13.3965 51.4995 13.7707 51.1075C14.367 50.4854 15.0189 49.917 15.68 49.3652C16.8971 48.3496 18.6638 47.0201 20.8694 45.7598C25.2713 43.2444 31.4952 40.964 38.6058 42.1017C44.8964 43.1081 48.8403 45.6919 50.6944 48.6398C52.5495 51.5894 52.2764 54.9432 49.9898 56.9136C46.6307 59.8081 40.6451 58.8321 39.1325 54.2944C38.9579 53.7705 39.2411 53.2042 39.765 53.0295C40.2889 52.8549 40.8553 53.138 41.0299 53.662C42.0989 56.8689 46.369 57.3935 48.6842 55.3985C50.0601 54.2129 50.4518 52.0107 49.0014 49.7046C47.5499 47.3967 44.218 45.025 38.2899 44.0765C31.789 43.0364 26.0349 45.1116 21.8616 47.4963C19.7796 48.6861 18.1094 49.9428 16.9615 50.9008C16.358 51.4044 15.7615 51.9216 15.2167 52.4892ZM47.8982 21.9525C48.7443 20.2603 51.5818 17.0441 56.415 17.0441C61.0975 17.0441 64.9262 20.2367 65.4399 24.9455C65.8917 29.0873 63.7818 33.7436 58.9937 35.8384C54.6646 37.7324 49.7846 36.1883 45.3943 35.2938C40.1886 34.2333 34.0938 33.2223 26.6794 34.8111C21.9325 35.8283 16.824 38.2183 12.3664 40.9829C7.90406 43.7504 4.18353 46.8373 2.18607 49.1821C1.82793 49.6026 1.19678 49.6531 0.776358 49.2949C0.355935 48.9368 0.305443 48.3056 0.663581 47.8852C2.8403 45.3299 6.74447 42.1162 11.3122 39.2833C15.8847 36.4475 21.2116 33.9374 26.2603 32.8555C34.0907 31.1776 40.5185 32.2594 45.7936 33.3341C49.7819 34.1467 54.2488 35.7313 58.192 34.0061C62.1152 32.2897 63.8165 28.5069 63.4517 25.1624C63.0472 21.4545 60.0904 19.0441 56.415 19.0441C52.5369 19.0441 50.2928 21.6354 49.6871 22.8469C49.4401 23.3409 48.8394 23.5411 48.3454 23.2941C47.8514 23.0472 47.6512 22.4465 47.8982 21.9525ZM3.28409 38.2821C7.48242 33.2091 19.3181 25.0275 33.4709 26.119C34.0215 26.1615 34.5023 25.7495 34.5448 25.1989C34.5873 24.6482 34.1753 24.1674 33.6247 24.1249C18.682 22.9725 6.25628 31.5537 1.7433 37.0069C1.39118 37.4324 1.45065 38.0628 1.87612 38.4149C2.3016 38.767 2.93197 38.7075 3.28409 38.2821Z"/>
</svg>
