<svg  height="62" viewBox="0 0 60 62" width="60" xmlns="http://www.w3.org/2000/svg"><path clip-rule="evenodd" d="m4.33855 7.61183c-1.33122.94421-1.79851 1.79781-1.79851 2.48317 0 .6853.46729 1.5389 1.79851 2.4831 1.30525.9258 3.25884 1.8004 5.76295 2.5516 4.9954 1.4987 11.9564 2.4401 19.688 2.4401 4.9257 0 9.5453-.3822 13.5459-1.0497.5448-.0908 1.0601.2771 1.151.8218.0909.5448-.2771 1.0601-.8218 1.151-4.1197.6873-8.8501 1.0769-13.8751 1.0769-7.2149 0-13.8362-.8032-18.9173-2.1456-1.14322.86-1.55189 1.6425-1.55189 2.2777 0 .4417.19053.9452.70009 1.5118.515.5726 1.315 1.1601 2.4098 1.7284 2.1882 1.1359 5.3716 2.1024 9.2375 2.7582.5446.0924.9111.6087.8187 1.1532-.0812.4789-.4449.7351-.8761.9187-1.1692.4977-3.2509 1.0706-3.2509 2.6604 0 .4073.2554.9657 1.1171 1.6248.8469.6478 2.1354 1.2742 3.8171 1.8183 3.3522 1.0846 8.0459 1.7718 13.2754 1.7718 1.325 0 2.6172-.0442 3.8634-.128.551-.0371 1.0278.3796 1.0649.9306.037.5511-.3796 1.0278-.9307 1.0649-1.2914.0869-2.6284.1325-3.9976.1325-3.4284 0-6.6665-.286-9.4963-.7949-.0264.0185-.054.0358-.0827.0519-1.4384.8085-1.8504 1.5353-1.8504 2.0061 0 .3423.2073.8276.951 1.4137.7325.5773 1.8543 1.1408 3.3297 1.6326 2.9404.9802 7.0661 1.6035 11.669 1.6035 4.603 0 8.7287-.6233 11.669-1.6035 1.4754-.4918 2.5973-1.0553 3.3297-1.6326.7438-.5861.951-1.0714.951-1.4137 0-.3998-.2901-.9941-1.3322-1.6895-1.0088-.6733-2.5254-1.2994-4.4582-1.8016-.467-.1213-.7708-.5532-.7476-1.0169-.0249-.4185.2171-.8241.6278-.988 1.279-.5105 2.2311-1.0647 2.8464-1.6161.6167-.5527.8035-1.0139.8035-1.3659 0-.4329-.2912-1.0367-1.2754-1.7419-1.2927-.9263-2.8172-1.4183-4.3128-1.9032-2.5273.6598-5.4383 1.1622-8.5926 1.471-.5496.0538-1.0388-.3482-1.0927-.8978-.0538-.5497.3482-1.0389.8979-1.0927 5.0181-.4913 9.2947-1.4763 12.2851-2.7447 1.4983-.6356 2.6218-1.3206 3.3549-2.0082.7323-.6868.9963-1.2963.9963-1.8132 0-.521-.2685-1.1366-1.0145-1.8301-.7426-.6904-1.8778-1.3771-3.3886-2.0131-.2402-.0938-.4442-.2799-.5545-.5354-.2188-.507.0149-1.0955.522-1.3143 1.5309-.6606 2.6753-1.364 3.4215-2.0665.7453-.7018 1.0137-1.3219 1.0137-1.8475 0-.68536-.4673-1.53896-1.7985-2.48317-1.3053-.92579-3.2589-1.80044-5.7629-2.55166-4.9955-1.49863-11.9565-2.44005-19.6881-2.44005s-14.6926.94142-19.688 2.44005c-2.50411.75122-4.4577 1.62587-5.76295 2.55166zm18.33935 28.16677c.5558.1798 1.1428.3486 1.7579.5056-.7757.7248-1.2962 1.5981-1.2962 2.6264 0 1.2178.7414 2.2188 1.7131 2.9846.8798.6934 2.0621 1.29 3.4421 1.7881-.1556.0976-.3025.1985-.4399.3027-.7069.5362-1.3256 1.2923-1.3256 2.2688 0 1.0833.7563 1.8942 1.5808 2.4512l.0072.0049c-.8472.1987-1.6085.4419-2.2622.7245-.7345.3176-1.3837.7064-1.8639 1.181-.4853.4797-.8516 1.1055-.8516 1.8546 0 .6273.2596 1.157.642 1.5964-1.0177.7019-1.7718 1.6836-1.7718 2.9232 0 1.4736 1.0812 2.5875 2.3414 3.2749 1.298.708 3.0229 1.115 4.8734 1.115 1.8506 0 3.5755-.407 4.8735-1.115 1.1879-.6479 2.2168-1.675 2.3309-3.025 2.2109-.1901 4.2188-.6879 5.7613-1.355.8909-.3853 1.6703-.846 2.2442-1.3725 1.0313-.9463 1.4375-2.3917.4669-3.5276 2.0742-.2196 3.9351-.5926 5.4386-1.0834 1.1359-.3707 2.1243-.8266 2.8497-1.3758.7085-.5365 1.3291-1.2934 1.3291-2.2714 0-.9055-.5344-1.6229-1.1672-2.1437-.0709-.0583-.1446-.1156-.2209-.1718.0875-.028.1742-.0564.2601-.085 1.5919-.5306 2.9522-1.1845 3.9352-1.9591.9717-.7658 1.713-1.7668 1.713-2.9846 0-1.4124-.9896-2.5307-2.2221-3.3531-.7584-.5061-1.6916-.9593-2.7582-1.3557.4701-.2858.8903-.5904 1.2512-.9139.8539-.7652 1.4688-1.7254 1.4688-2.8553 0-1.3883-.9196-2.5143-2.1104-3.3676-.6428-.4606-1.4182-.8828-2.3002-1.2649.3813-.1409.7486-.2861 1.101-.4356 1.6168-.6858 2.9737-1.4823 3.9422-2.3906.9693-.9091 1.6281-2.0099 1.6281-3.272 0-1.2726-.6697-2.381-1.6527-3.2949-.5759-.5354-1.2873-1.0321-2.1078-1.49.8262-.4693 1.5405-.9752 2.1174-1.5184.9799-.9227 1.6427-2.0333 1.6427-3.3036 0-1.65499-1.1137-3.03087-2.6415-4.11449-1.5537-1.10205-3.7372-2.05357-6.3453-2.836-5.2288-1.56866-12.3925-2.524393-20.2627-2.524393s-15.0339.955733-20.26273 2.524393c-2.60807.78243-4.79152 1.73395-6.34528 2.836-1.52778 1.08362-2.641451 2.4595-2.641451 4.11449 0 1.6549 1.113671 3.0308 2.641451 4.1144 1.36985.9716 3.22915 1.8262 5.43737 2.5511-.79296.848-1.29855 1.8303-1.29855 2.9414 0 1.071.4767 2.0305 1.21304 2.8492.7309.8127 1.75545 1.5328 2.97545 2.1661 1.8228.9463 4.1839 1.7508 6.9184 2.3785-.2968.2154-.5671.4409-.8071.6765-.7422.7286-1.2607 1.6244-1.2607 2.6604 0 1.3089.8196 2.3855 1.902 3.2134 1.0972.8392 2.622 1.552 4.4165 2.1326zm11.6384 20.5685c-.0214-.5519.4086-1.0166.9604-1.0381 2.4241-.0942 4.5907-.5979 6.1196-1.2592 2.547-1.1015 2.0431-2.1394-.2125-2.8912-.4284-.1427-.6958-.5473-.6837-.9766.0086-.5344.4383-.9709.9773-.983 3.2941-.0745 6.1962-.5305 8.2421-1.1983 1.0287-.3357 1.7848-.707 2.2628-1.069 1.3774-1.0429-.9054-1.9303-1.744-2.2422-2.6771.5556-5.8125.8709-9.149.8709-3.6306 0-7.0232-.3734-9.8462-1.0234-.9871.3289-1.7152.6903-2.1796 1.0425-.7432.5637-.5751.9684.1662 1.4693.6077.4106 1.5509.8157 2.799 1.1628.5321.148.8435.6993.6955 1.2314-.1007.3621-.3882.622-.7293.7045-.0565.0147-.1152.0246-.1755.0293-2.1862.1692-3.9685.5747-5.1706 1.0944-.6032.2608-1.0101.5289-1.2517.7677-.2364.2337-.2575.3775-.2575.4321 0 .0481.0615.3684.8597.8284.3379.1948.5191.5569.4994.9213.0232.4141-.2147.8157-.6202.9815-1.4046.5745-1.8687 1.312-1.8687 1.7884 0 .3986.31.9796 1.2991 1.5191.9513.5189 2.3339.8708 3.9157.8708 1.5819 0 2.9645-.3519 3.9158-.8708.9891-.5395 1.2991-1.1205 1.2991-1.5191 0-.226-.1143-.4153-.1232-.6435z" fill-rule="evenodd"/></svg>