<svg fill="none" height="63" viewBox="0 0 67 63" width="67" xmlns="http://www.w3.org/2000/svg"><path clip-rule="evenodd" d="m8.80654 7.79362-.00503.00002-.00539-.00002c-2.44944.00251-4.43432 1.98893-4.43432 4.43898 0 2.4515 1.98739 4.4389 4.43896 4.4389 1.08367 0 1.74954-.432 2.59654-.9424.5067-.3053 1.1649-.142 1.4702.3646.7784 1.2919 2.192 2.1521 3.8055 2.1521 2.3596 0 4.2892-1.8411 4.4306-4.1652-.7091-1.0501-1.1231-2.3159-1.1231-3.6783 0-.59155.4795-1.07107 1.071-1.07107s1.071.47952 1.071 1.07107c0 2.4515 1.9874 4.4389 4.439 4.4389.5915 0 1.071.4795 1.071 1.0711 0 .5915-.4795 1.071-1.071 1.071-1.3469 0-2.5992-.4046-3.6422-1.0989-.6728 2.0238-2.3017 3.6111-4.351 4.2264.0005.0393-.0011.079-.0049.119-.0209.2173-.0317.4378-.0317.6611 0 3.7558 3.0447 6.8004 6.8004 6.8004 1.1581 0 2.2456-.2886 3.1977-.7969.0108-.0061.0218-.012.0329-.0177.6372-.3355 1.4383.0718 1.5554.7709.4224 1.2552 1.6096 2.1577 3.005 2.1577.5916 0 1.0711.4795 1.0711 1.071s-.4795 1.0711-1.0711 1.0711c-1.401 0-2.6745-.5422-3.6231-1.4277v4.5048c.2973.0339.5958.103.8906.2102 1.8049.6564 4.4139.6564 6.2188 0 .2948-.1072.5933-.1763.8906-.2102v-7.0248c0-.5523.4477-1 1-1 .7216 0 .7851.6484 1.2469 1 1.377 1.0485 3.3037 1.23 4.8948.3114 2.0731-1.1969 2.8111-3.8183 1.6915-5.9141-.2309-.4322-.8211-1.2037-.8317-1.204-2.8353-.0696-5.1948-2.0475-5.8474-4.6967-.1415-.5743.2094-1.1546.7838-1.2961.5743-.1415 1.1546.2094 1.2961.7838.4342 1.7626 2.0269 3.0688 3.9221 3.0688 1.468 0 2.7543-.7825 3.4628-1.9582.0442-.0735.0958-.1397.1534-.1983.3473-.4474.9883-.5486 1.4582-.2209.8762.6112 1.9407.9695 3.092.9695 2.9892 0 5.4124-2.4232 5.4124-5.4123 0-2.98918-2.4232-5.41237-5.4124-5.41237-1.7189 0-3.2503.80008-4.2434 2.0524-.3676.46345-1.0413.5412-1.5047.17364-.4635-.36756-.5412-1.04123-.1737-1.50469 1.3821-1.74261 3.5214-2.86342 5.9218-2.86342 3.4987 0 6.4419 2.37837 7.3009 5.60654 1.4642-.36492 2.549-1.68865 2.549-3.26576 0-1.72561-1.2997-3.14921-2.9729-3.34292-.5876-.06802-1.0088-.59951-.9408-1.1871s.5995-1.00879 1.1871-.94076c2.7412.31734 4.8687 2.64485 4.8687 5.47078 0 2.67644-1.9092 4.90696-4.4399 5.40416-.1011 4.0841-3.4436 7.3639-7.5521 7.3639-1.2289 0-2.3911-.2942-3.418-.816-.6718.8052-1.5452 1.4374-2.543 1.8187.0892.1315.1742.2671.2547.4066 1.8133 3.1407.7372 7.1566-2.4035 8.9699-1.9809 1.1437-4.3085 1.1377-6.2127.1905v4.9698c.865.3747 1.5994 1.0534 2.0377 1.9397 3.294 6.6606 7.6036 11.7146 13.9657 16.6172.0754.0438.1433.0964.203.1559 2.9603 2.2642 6.3612 4.4995 10.3053 6.8493.4744.2827.6299.8965.3472 1.371-.2827.4744-.8964.6299-1.3709.3472-4.0052-2.3863-7.4849-4.6724-10.532-7.006l-10.4532-4.5994 1.4637 5.4887c.1113.4173-.0579.8589-.4196 1.095s-.8341.2133-1.1713-.0565l-6.4585-5.1667-2.9922 7.2666c-.1543.3747-.5194.6193-.9246.6193-.4053 0-.7704-.2446-.9247-.6193l-2.9922-7.2666-6.4584 5.1667c-.3461.2769-.8332.2929-1.1967.0394-.3636-.2535-.5169-.716-.3767-1.1365l1.8001-5.4005-10.8157 4.5759c-3.04512 2.3315-6.52228 4.6157-10.524 6.9999-.47446.2827-1.088244.1272-1.370926-.3472-.282682-.4745-.127218-1.0883.347239-1.371 3.945057-2.3504 7.346767-4.5862 10.307587-6.8511.0587-.0582.1253-.1098.1992-.1529 6.3629-4.903 10.6729-9.9572 13.9672-16.6184.4383-.8863 1.1727-1.565 2.0377-1.9397v-5.7579c-.6946.173-1.4209.2648-2.1679.2648-4.9388 0-8.9425-4.0037-8.9425-8.9425 0-.1705.0048-.3401.0143-.5085-1.87-.0752-3.5384-.931-4.6888-2.2479-.879.4347-1.86905.6791-2.91434.6791-3.63461 0-6.58103-2.9464-6.58103-6.581 0-3.29998 2.42883-6.03265 5.59635-6.50788.47293-2.72436 2.84872-4.796009 5.70832-4.796009.5915 0 1.071.479519 1.071 1.071039s-.4795 1.07104-1.071 1.07104c-1.684 0-3.1017 1.13978-3.5239 2.68996 1.5965.29428 2.9911 1.1648 3.959 2.3852.3675.46346.2898 1.13713-.1737 1.50469-.4634.36756-1.1371.28981-1.5047-.17365-.8137-1.02608-2.0672-1.68157-3.47456-1.68337zm40.38506 43.30578c-3.9312-3.7963-6.9652-7.9292-9.4466-12.9466-.464-.9383-1.5286-1.3743-2.4521-1.0385-2.2539.8196-5.3319.8196-7.5858 0-.9235-.3358-1.9881.1002-2.4521 1.0385-2.5224 5.1004-5.6159 9.2868-9.6424 13.1347l6.998-2.9607c.3619-.1531.7799-.0801 1.0685.1867.2885.2667.3941.6777.2698 1.0505l-1.4291 4.2875 4.8558-3.8846c.2458-.1967.5699-.2661.8747-.1874s.5548.2964.6746.5875l2.5754 6.2544 2.5753-6.2544c.1198-.2911.3698-.5088.6746-.5875s.6289-.0093.8748.1874l5.1255 4.1005-1.2165-4.562c-.099-.3715.0236-.7669.3156-1.017.292-.2502.7015-.3108 1.0534-.156zm-8.646-42.10873c-.5915 0-1.071.47952-1.071 1.07103 0 .5915.4795 1.071 1.071 1.071 3.1999 0 5.7939-2.59396 5.7939-5.79384 0-.59152-.4795-1.07104-1.071-1.07104s-1.071.47952-1.071 1.07104c0 2.01684-1.635 3.65181-3.6519 3.65181z"  fill-rule="evenodd"/></svg>