<svg  height="64" viewBox="0 0 65 64" width="65" xmlns="http://www.w3.org/2000/svg"><path clip-rule="evenodd" d="m15.2247 11.3593c-4.3392 3.6298-7.95722 7.7879-10.53908 11.3259 1.89786-.9868 3.79465-1.7267 5.66808-2.2396.0395-.0702.0882-.1366.1461-.1977 3.6832-3.8857 8.2254-7.7561 13.3408-10.50531 4.3822-2.35514 9.2135-3.90226 14.2979-3.90226 2.4547 0 4.905.72017 7.0657 1.66077-1.1655-2.26387-3.8649-5.10169-8.9074-5.10169-7.7605 0-15.0528 3.92458-21.0721 8.95989zm32.5672-2.52361c-.0024-.06548-.0113-.13168-.0272-.19785-.6736-2.80127-3.9174-8.238426-11.4679-8.238426-8.4273 0-16.1643 4.246856-22.3554 9.425836-6.20134 5.18765-10.96678 11.40515-13.472268 15.57325-.243821.4056-.16992.9266.177084 1.2484.347003.3218.872084.3563 1.258204.0827 5.1413-3.6437 10.31018-5.1842 15.01168-5.1842 1.8068 0 2.8095.4595 3.3492.9413.536.4784.7249 1.0752.7249 1.5889 0 .8961-.9702 2.4061-3.2227 2.3103-.6659-.0283-1.4212-.1375-2.2927-.2634h-.0004l-.001-.0002c-.1754-.0253-.3556-.0514-.5406-.0775-1.0734-.1519-2.2711-.3014-3.4839-.2929-2.45907.0171-5.0745.6902-7.02753 3.3175-1.70072 2.2879-1.72175 5.0438-1.12926 7.3267.47788 1.8413 1.39351 3.5301 2.34892 4.6008-2.38398 3.6638-2.32367 7.379-1.20359 10.5472 1.21101 3.4255 3.65317 6.2185 5.53842 7.761.42744.3497 1.05744.2867 1.40724-.1407.3497-.4274.2867-1.0575-.1408-1.4072-1.68169-1.3759-3.86037-3.8846-4.91923-6.8797-1.0393-2.9398-1.00686-6.3379 1.66608-9.7236 3.32345-4.2098 8.93895-5.003 13.47195-4.041 2.2601.4797 4.1088 1.3709 5.166 2.3515.5257.4876.8005.9452.8944 1.33.0855.3504.0421.7165-.2341 1.1309-.2062.3093-.5462.4902-1.2073.3623-.7048-.1362-1.6393-.6231-2.642-1.5255-.4105-.3695-1.0428-.3362-1.4123.0743-.3694.4105-.3362 1.0428.0743 1.4122.8834.7951 1.7826 2.266 1.8129 3.6562.0192.8775-.4986 1.5403-1.3199 1.966-.568.2944-1.1725.2581-1.921-.0746-.781-.3471-1.5726-.9539-2.411-1.6166-.5916-.4677-1.2712-.943-1.9077-1.2158-3.9769-1.7043-7.05317.572-7.68734 3.1087-.13395.5358.19181 1.0787.72761 1.2126.53579.134 1.07873-.1918 1.21263-.7276.3387-1.3545 2.1264-2.9694 4.9592-1.7554.3868.1658.8989.5066 1.4553.9464.8049.6363 1.7896 1.4089 2.839 1.8753 1.0818.4808 2.3619.6922 3.6537.0226.8161-.423 1.5954-1.097 2.0343-2.0255 10.0519 7.9095 17.4588 12.1665 28.8872 15.9298.5246.1728 1.0899-.1125 1.2626-.637.1727-.5246-.1125-1.0899-.6371-1.2626-11.5023-3.7877-18.8018-8.0568-29.1853-16.3217-.0439-.3713-.1234-.7359-.231-1.0894.0188.0039.0375.0077.0563.0113 1.2304.2379 2.4848-.0669 3.2512-1.2169.571-.8567.7373-1.7936.5128-2.714-.2161-.8861-.7711-1.6673-1.4773-2.3224-1.4068-1.3049-3.6307-2.3151-6.1109-2.8415-4.7606-1.0103-10.992-.33-14.99525 4.2051-.6198-.7997-1.28178-2.0373-1.65308-3.4679-.50337-1.9395-.41401-4 .7985-5.6311 1.45359-1.9554 3.3606-2.4963 5.43633-2.5108 1.0546-.0073 2.1275.123 3.1898.2732.1672.0237.3356.0481.5042.0726h.0003.0002l.0003.0001c.8701.1261 1.748.2533 2.5249.2864 3.2776.1395 5.3077-2.1657 5.3077-4.3085 0-1.0059-.3773-2.1742-1.393-3.0809-1.0119-.9034-2.5462-1.4493-4.6811-1.4493-1.0231 0-2.0625.0667-3.1141.2038 3.1963-3.1067 6.907-6.0495 10.9624-8.2326 5.4568-2.56786 11.1501-1.0929 16.194 3.8667-1.4647.2804-3.12.8612-4.5943 1.8927-2.2788 1.5944-4.0741 4.2365-4.0741 8.3023 0 7.1418 5.5203 12.9279 11.9013 17.3547 6.39 4.4332 13.9749 7.7308 18.831 9.8421l.1068.0464c.5065.2202 1.0956-.0119 1.3158-.5184s-.0119-1.0956-.5184-1.3158l-.0529-.023c-4.8768-2.1203-12.3148-5.3542-18.5423-9.6745-6.3062-4.375-11.0413-9.6374-11.0413-15.7115 0-3.3774 1.4469-5.4225 3.2206-6.6635 1.6675-1.1666 3.667-1.6461 5.1205-1.7323l.0317.0366v.0001l.0001.0001c1.2138 1.4041 2.429 2.8099 4.8443 2.8099.5125 0 .9901-.1181 1.4244-.312 1.217-.5434 2.0136-1.4403 2.3995-2.5283.3765-1.0614.3378-2.2303.046-3.3315-.5052-1.9069-1.8237-3.8202-3.5852-5.02171zm-15.1998-.34454c1.8144-.4208 3.6668-.65082 5.5464-.65082 2.6997 0 5.5218 1.03498 7.9391 2.29497 1.6285.8489 2.9243 2.5663 3.3662 4.2343.2183.8239.21 1.5655.0024 2.1508-.1981.5586-.5998 1.0445-1.33 1.3706-.2095.0935-.4103.1382-.609.1382-1.4692 0-2.0827-.6992-3.3932-2.1927l-.0002-.0003-.0007-.0008c-.1062-.121-.2169-.2472-.333-.3786-3.3501-3.7922-7.1816-6.24421-11.188-6.96565zm-19.0455 41.34605c.4251-.3525 1.0554-.2937 1.4079.1313 1.0296 1.2353 2.1901 2.3733 3.3598 3.473 2.1874 2.0564 5.3585 4.7177 9.2931 7.1407.4702.2896.6167.9056.3271 1.3759s-.9056.6167-1.3759.3271c-4.0777-2.5112-7.3556-5.2632-9.6142-7.3866-1.9136-1.799-3.6604-3.7256-3.5293-3.6533-.3525-.4252-.2936-1.0556.1315-1.4081z" fill-rule="evenodd"/></svg>