<svg fill="none" height="61" viewBox="0 0 68 61" width="68" xmlns="http://www.w3.org/2000/svg"><path clip-rule="evenodd" d="m33.5 2c-8.3416 0-15.2266 7.09502-14.9941 15.4268 3.7586.9334 6.9374 3.333 8.8944 6.5539.2868.472.1367 1.0871-.3353 1.3739s-1.0871.1366-1.3739-.3353c-2.1939-3.6109-6.1617-6.0193-10.6911-6.0193-6.90356 0-12.5 5.5964-12.5 12.5 0 3.9258 1.80934 7.4296 4.64304 9.7226.00453.0037.00901.0074.01346.0111.92048.7427 1.94856 1.3576 3.0573 1.8175.5102.2116.7521.7967.5405 1.3069-.2116.5101-.79671.7521-1.30684.5405-1.28637-.5337-2.47943-1.2473-3.54771-2.1095-.00496-.0038-.00989-.0078-.0148-.0117-3.28304-2.6567-5.38495-6.7219-5.38495-11.2774 0-8.0081 6.49187-14.5 14.5-14.5.5066 0 1.007.026 1.5002.0767l-.0002-.0767c0-9.38884 7.6112-17 17-17 9.0641 0 16.4714 7.0938 16.9729 16.0325.3398-.0216.6823-.0325 1.0272-.0325 8.8366 0 16 7.1634 16 16 0 4.0973-1.5414 7.8369-4.0743 10.6669-.3683.4115-1.0005.4466-1.4121.0782-.4115-.3683-.4465-1.0005-.0782-1.412 2.2175-2.4775 3.5646-5.7468 3.5646-9.3331 0-7.732-6.268-14-14-14-.6338 0-1.2573.0421-1.8679.1234-.5475.073-1.0504-.3117-1.1233-.8592-.0119-.0894-.0089-.176-.0089-.2642 0-8.28427-6.7157-15-15-15zm-27.57707 55.5771c-.39053.3905-.39053 1.0237 0 1.4142.39052.3905 1.02369.3905 1.41421 0l13.43506-13.435c.3905-.3906.3905-1.0237 0-1.4143-.3906-.3905-1.0237-.3905-1.4142 0zm17.28417-4.2426c-.3905-.3905-.3905-1.0236 0-1.4142l13.435-13.435c.3906-.3905 1.0237-.3905 1.4143 0 .3905.3905.3905 1.0237 0 1.4142l-13.4351 13.435c-.3905.3906-1.0237.3906-1.4142 0zm19.4854 5.6569c-.3906.3905-.3906 1.0237 0 1.4142.3905.3905 1.0236.3905 1.4142 0l13.435-13.435c.3905-.3906.3905-1.0237 0-1.4142-.3905-.3906-1.0237-.3906-1.4142 0zm-13.4854-.0001c-.3905-.3905-.3905-1.0237 0-1.4142l7.7782-7.7782c.3905-.3905 1.0237-.3905 1.4142 0s.3905 1.0237 0 1.4142l-7.7782 7.7782c-.3905.3905-1.0237.3905-1.4142 0zm13.4854-15.5563c-.3906.3905-.3906 1.0237 0 1.4142.3905.3905 1.0236.3905 1.4142 0l7.7781-7.7782c.3906-.3905.3906-1.0237 0-1.4142-.3905-.3905-1.0236-.3905-1.4142 0zm-14.753-6.2679c-.3905-.3906-.3905-1.0237 0-1.4142l7.7782-7.7782c.3905-.3905 1.0237-.3905 1.4142 0s.3905 1.0237 0 1.4142l-7.7782 7.7782c-.3905.3905-1.0236.3905-1.4142 0z" fill-rule="evenodd"/></svg>