<svg fill="none" height="68" viewBox="0 0 73 68" width="73" xmlns="http://www.w3.org/2000/svg"><path clip-rule="evenodd" d="m38.4548.501038c.5134-.023249.9609.346537 1.0348.855192l7.013 48.26587 1.9986-41.17057c.0254-.52274.4495-.9375.9727-.95117.5231-.01368.9684.37835 1.021.89904l3.9239 38.8024 2.1111-8.4443c.1112-.4452.5112-.7575.9701-.7575h14c.5523 0 1 .4477 1 1s-.4477 1-1 1h-13.2192l-3.3107 13.2425c-.1178.4715-.5575.7899-1.0421.7549-.4847-.035-.874-.4133-.9229-.8968l-3.1546-31.1957-1.8517 38.1436c-.0249.5144-.4365.9257-.9509.9504-.5144.0246-.9635-.3454-1.0375-.8551l-7.053-48.5409-2.9588 54.9509c-.0283.5239-.4566.9369-.9812.9461-.5246.0091-.967-.3887-1.0135-.9113l-3.1037-34.9166-1.4061 12.9361c-.053.4877-.4519.8649-.9418.8905-.4899.0257-.926-.3078-1.0297-.7873l-3.0182-13.9591-2.0266 9.4573c-.0938.4377-.467.7598-.9137.7885-.4468.0286-.8581-.2431-1.0071-.6652l-2.1155-5.9939-2.013 5.0325c-.1519.3797-.5196.6286-.9285.6286h-14c-.552285 0-1-.4477-1-1s.447715-1 1-1h13.323l2.7485-6.8714c.1547-.3866.5328-.637.9491-.6284s.7838.2743.9224.667l1.8213 5.1603 2.2579-10.537c.0987-.4607.5057-.79.9769-.7905.4712-.0004.8787.3281.9783.7887l2.6955 12.4665 1.833-16.8632c.0555-.5112.4897-.897 1.0039-.8919.5142.005.9407.3992.9863.9114l2.759 31.0388 2.7463-51.00405c.0277-.513252.4399-.921963.9534-.945212z" fill-rule="evenodd"/></svg>