<svg fill="none" height="66" viewBox="0 0 67 66" width="67" xmlns="http://www.w3.org/2000/svg"><path clip-rule="evenodd" d="m64.5 33c0-17.1208-13.8792-31-31-31-16.9806 0-30.77242 13.6527-30.99721 30.58.04005 2.8618.51081 5.6195 1.35038 8.2112 3.1923 8.868 11.67913 15.2088 21.64683 15.2088 12.7025 0 23-10.2975 23-23 0-8.2843-6.7157-15-15-15-8.2287 0-14.9099 6.626-14.9991 14.8336.0727 5.4611 4.5223 9.8656 10.0006 9.8656 5.5211 0 9.9974-4.4737 10.0015-9.9939l-.0001-.0075c0-3.4984-2.8359-6.3344-6.3343-6.3344-3.4983 0-6.3343 2.836-6.3343 6.3344 0 .5522-.4477 1-1 1s-1-.4478-1-1c0-4.603 3.7314-8.3344 8.3343-8.3344 4.6001 0 8.3298 3.7269 8.3343 8.3259l.0001.0085c0 6.6282-5.3733 12.0014-12.0015 12.0014-6.4863 0-11.7707-5.1455-11.9941-11.5773-.0049-.0399-.0074-.0806-.0074-.1219 0-.0579.0002-.1158.0007-.1737-.0005-.0428-.0007-.0856-.0007-.1285 0-.0276.0011-.0549.0033-.0819.2049-11.9245 9.9354-21.528 21.9088-21.528 11.754 0 21.3465 9.2547 21.888 20.8749.0157.0703.024.1435.024.2186 0 .1458-.0011.2913-.0031.4366.0021.1271.0032.2544.0032.382 0 .0622-.0057.1232-.0166.1823-.5278 16.0566-13.7105 28.9111-29.8956 28.9111-5.7961 0-11.2073-1.6486-15.79-4.5024 5.2279 4.0193 11.7739 6.409 18.878 6.409 17.1208 0 31-13.8792 31-31zm-31-33c18.2254 0 33 14.7746 33 33s-14.7746 33-33 33-33-14.7746-33-33c0-.14.000872-.2798.00261-.4194-.001738-.1328-.00261-.2659-.00261-.3992 0-.0583.004985-.1154.014553-.1709.523257-17.7677 15.091047-32.0105 32.985447-32.0105zm-17.2812 56.2205c4.1586 2.4607 9.011 3.8729 14.1932 3.8729 15.2686 0 27.6738-12.2597 27.9087-27.4723-.202-10.8223-9.038-19.5332-19.9086-19.5332-5.1548 0-9.8522 1.9588-13.3883 5.1726 2.4951-1.4379 5.3896-2.2605 8.4762-2.2605 9.3888 0 17 7.6112 17 17 0 13.8071-11.1929 25-25 25-3.2796 0-6.4116-.6315-9.2812-1.7795z" fill-rule="evenodd"/></svg>